<svg viewBox="0 0 100 100" fill="none" xmlns="http://www.w3.org/2000/svg">
  <ellipse cx="50" cy="62" rx="28" ry="34" fill="#0f1419"/>
  <ellipse cx="50" cy="67" rx="17" ry="22" fill="#1d9bf0"/>
  <ellipse cx="50" cy="28" rx="22" ry="20" fill="#0f1419"/>
  <circle cx="42" cy="25" r="5" fill="white"/>
  <circle cx="58" cy="25" r="5" fill="white"/>
  <circle cx="43" cy="25" r="2.5" fill="#0f1419"/>
  <circle cx="59" cy="25" r="2.5" fill="#0f1419"/>
  <circle cx="44" cy="23.5" r="1" fill="white"/>
  <circle cx="60" cy="23.5" r="1" fill="white"/>
  <path d="M45 33 Q50 40 55 33" fill="#f4a422"/>
  <ellipse cx="22" cy="62" rx="9" ry="20" fill="#0f1419" transform="rotate(-10 22 62)"/>
  <ellipse cx="78" cy="62" rx="9" ry="20" fill="#0f1419" transform="rotate(10 78 62)"/>
  <ellipse cx="39" cy="94" rx="10" ry="5" fill="#f4a422" transform="rotate(-15 39 94)"/>
  <ellipse cx="61" cy="94" rx="10" ry="5" fill="#f4a422" transform="rotate(15 61 94)"/>
</svg>
